# xmcd
#
# Track frame offsets:
# 150
# 17817
# 35237
#
# Disc length: 707 seconds
#
#
# Revision: 0
# Processed by: cddbd v1.5.1PL2 Copyright (c) Steve Scherf et al.
# Submitted via: FreeRIP 2.944 
#
DISCID=2102c103
DTITLE=Gina Thomson - Yadiya
DYEAR=1900
DGENRE=Hip-Hop
TTITLE0=Rufftime Remix
TTITLE1=Orginal Radio Edit
TTITLE2=Album Version
EXTD=
EXTT0=
EXTT1=
EXTT2=
PLAYORDER=
